<svg version="1.1" id="Layer_1" xmlns="http://www.w3.org/2000/svg" x="0" y="0" viewBox="0 0 2048 2048" style="enable-background:new 0 0 2048 2048" xml:space="preserve">
  <style>.st2{fill:#f7e07f}.st3{fill:#784132}.st4{fill:#f2b9a3}</style>
  <path d="M1619.58 1791.72v-334.09c0-99.11-80.35-179.46-179.46-179.46h-23.33L1024 1556.72l-392.78-278.55h-23.34c-99.11 0-179.45 80.35-179.45 179.46v334.09h1191.15z" style="fill:#3582a8"/>
  <path style="fill:#e5e9f2" d="m956.68 1791.72-325.74-513.55h785.57l-325.74 513.55z"/>
  <circle class="st2" cx="1476.36" cy="542.66" r="56.18"/>
  <path class="st3" d="M1123.03 1211.39c17.7 0 35.29-2.81 52.11-8.33 24.69-8.13 49.08-18.85 75.03-20.26 22.39-1.23 44.54 4.56 66.94 5.36 23.16.81 39.99-.82 61.08-10.42V663.26c0-197.11-159.79-356.9-356.9-356.9-197.11 0-356.9 159.79-356.9 356.9v514.47-.01c21.09 9.6 37.92 11.24 61.08 10.42 22.4-.79 44.55-6.58 66.94-5.36 25.96 1.41 50.34 12.13 75.03 20.26 16.82 5.52 34.4 8.33 52.11 8.33h203.48z"/>
  <path class="st4" d="M1193 790.77h100.99c12.36-4.78 26.18-6.72 40.56-4.97 39.67 4.83 70.67 38.03 73.01 77.92 2.84 48.45-35.6 88.64-83.43 88.64-12.71 0-24.76-2.84-35.54-7.92H1193V790.77zM903.72 790.77H754c-9.34-3.62-19.52-5.61-30.14-5.61-48.08 0-86.67 40.6-83.39 89.38 2.75 40.88 35.53 74.18 76.36 77.53 15.29 1.25 29.82-1.63 42.57-7.64h144.31V790.77zM1138.13 1277.75l-.12.18-114.05 160.61-114.04-160.61-.13-.18 5.29-69.32 5.51-72.33 5.05-66.31h196.67l5.2 68.51 5.34 70.13z"/>
  <path d="M1294.01 734.64v155.77c0 74.56-30.22 142.06-79.08 190.91-48.86 48.86-116.36 79.08-190.94 79.08-149.12 0-270.02-120.88-270.02-269.99V734.64c141.01-75.45 154.51-210.34 155.27-250.67 10.04 283.32 384.77 250.67 384.77 250.67" style="fill:#f4baa6"/>
  <circle class="st3" cx="900.02" cy="829.41" r="32.57"/>
  <circle class="st3" cx="1147.97" cy="829.41" r="32.57"/>
  <path class="st3" d="M1023.74 1075.13c-33.68 0-65.31-13.08-89.06-36.83a10.724 10.724 0 0 1-3.16-7.64c0-2.89 1.12-5.6 3.16-7.64s4.75-3.16 7.64-3.16 5.6 1.12 7.64 3.16c19.68 19.68 45.88 30.51 73.78 30.51s54.1-10.84 73.78-30.51c2.04-2.04 4.75-3.16 7.64-3.16 2.89 0 5.6 1.12 7.64 3.16s3.16 4.75 3.16 7.64c0 2.89-1.12 5.6-3.16 7.64-23.74 23.75-55.37 36.83-89.06 36.83z"/>
  <g>
    <path class="st2" d="M1476.36 585.11c-13.87 0-25.12-11.24-25.12-25.12V289.6c0-13.87 11.24-25.12 25.12-25.12s25.12 11.24 25.12 25.12V560c0 13.87-11.25 25.11-25.12 25.11z"/>
    <path d="M1343.89 488.46H704.1c-5.52 0-10-4.48-10-10V281.12h659.79v197.34c0 5.52-4.47 10-10 10z" style="fill:#266280"/>
    <path d="M1526.14 306.23H521.85c-13.87 0-25.12-11.24-25.12-25.12 0-13.87 11.24-25.12 25.12-25.12h1004.29c13.87 0 25.12 11.24 25.12 25.12s-11.25 25.12-25.12 25.12z" style="fill:#307699"/>
  </g>
</svg>
